<svg enable-background="new 0 0 512 512" height="512" viewBox="0 0 512 512" width="512" xmlns="http://www.w3.org/2000/svg"><path d="m0 0h512v512h-512z" fill="#929292" opacity="0"/><path d="m196 472h-24l36-72h24z" fill="#1e88e8"/><path d="m244 472h-24l36-72h24z" fill="#1e88e8"/><path d="m362.125 427.569-20.043.029-1.699.175.972-1.339 10.023-17.402-15.033-8.643-10.005 17.386-.69 1.545-.699-1.552-10.045-17.345-15.011 8.678 9.97 17.206 1.074 1.505-1.877-.17-19.853.025.023 17.41 19.83-.027 1.901-.176-1.142 1.637-9.852 17.103 15.033 8.646 9.931-17.257.762-1.675.713 1.575 10.033 17.324 15.011-8.679-10.09-17.407-.956-1.306 1.522.173 20.219-.027z" fill="#d1d3d4"/><path d="m146.198 273.782c-22.262-12.082-36.092-35.28-36.092-60.542 0-37.958 30.881-68.839 68.839-68.839 30.885 0 58.182 20.8 66.381 50.583l-13.326 9.55s-18.911-5.672-48 14.466c-26 18-32.078 44.235-32.078 44.235z" fill="#fff200"/><path d="m51.584 152.326 11.058-19.152 34.855 20.125c-4.398 5.948-8.128 12.354-11.126 19.111zm139.416-80.326h-23v40.774c3-.383 7.658-.577 11.238-.577 3.76 0 7.762.212 11.762.633zm-71.687 59.619c5.982-4.368 12.412-8.058 19.18-11.011l-20.202-34.99-19.151 11.057zm-41.027 92.381c-.387-4-.583-7.198-.583-10.8 0-3.735.21-7.2.626-11.2h-39.329v22zm180.989-127.326-19.153-11.058-20.307 35.176c6.763 2.987 13.176 6.705 19.131 11.092zm-196.633 196.635 34.649-20.006c-4.38-5.965-8.087-12.385-11.062-19.148l-34.645 20.002zm89.28-30.074c-17.743-9.629-29.816-28.429-29.816-49.995 0-31.341 25.498-56.839 56.839-56.839 26.125 0 48.19 17.717 54.812 41.768l17.095-19.829c-12.98-26.637-40.336-45.035-71.906-45.035-44.077 0-79.936 35.859-79.936 79.936 0 25.283 11.799 47.864 30.181 62.522z" fill="#ffb200"/><path d="m166.7 364c-27.001 0-48.968-22.231-48.968-49.559 0-23.384 16.143-43.03 37.762-48.164 5.176-34.57 35.054-61.167 71.023-61.167 3.874 0 7.71.305 11.484.909 12.396-35.859 46.497-60.771 85.347-60.771 49.792 0 90.301 40.508 90.301 90.3 0 3.164-.165 6.324-.494 9.465 24.222 8.037 41.776 31.425 41.776 58.005 0 33.625-27.091 60.981-60.391 60.981h-227.84z" fill="#e6e7e8"/><path d="m323.348 157.249c43.244 0 78.301 35.056 78.301 78.3 0 6.455-.786 12.725-2.258 18.727 24.446 2.433 43.54 23.652 43.54 48.743 0 26.726-21.665 48.981-48.391 48.981h-227.84c-20.418 0-36.968-17.139-36.968-37.559 0-20.416 16.55-37.471 36.968-37.471 0-33.034 26.78-59.86 59.816-59.86 7.009 0 13.732 1.194 19.984 3.41 7.018-36.041 38.754-63.271 76.848-63.271m0-23.096c-40.561 0-76.51 24.173-92.547 59.925-1.423-.073-2.853-.109-4.284-.109-39.058 0-71.894 27.145-80.633 63.56-22.892 8.542-39.249 30.88-39.249 56.864 0 33.347 26.945 60.607 60.065 60.607h227.84c39.418 0 71.487-32.385 71.487-72.029 0-17.82-6.581-35.015-18.531-48.294-6.481-7.204-14.231-12.969-22.773-16.986.015-.703.021-1.421.021-2.124 0-55.911-45.486-101.414-101.396-101.414z" fill="#939598"/></svg>